<?xml version="1.0" standalone="no"?>
<!DOCTYPE svg PUBLIC "-//W3C//DTD SVG 20010904//EN"
 "http://www.w3.org/TR/2001/REC-SVG-20010904/DTD/svg10.dtd">
<svg version="1.0" xmlns="http://www.w3.org/2000/svg"
 width="70.000000pt" height="70.000000pt" viewBox="0 0 70.000000 70.000000"
 preserveAspectRatio="xMidYMid meet">
<metadata>
Created by potrace 1.11, written by Peter Selinger 2001-2013
</metadata>
<g transform="translate(0.000000,70.000000) scale(0.100000,-0.100000)"
fill="#000000" stroke="none">
<path d="M450 572 c-32 -10 -78 -66 -90 -107 l-12 -44 -49 6 c-44 5 -49 4 -49
-14 0 -17 9 -22 44 -27 35 -6 44 -11 39 -22 -5 -13 -15 -14 -49 -9 -39 6 -44
4 -44 -13 0 -22 18 -32 56 -32 17 0 24 -6 24 -18 0 -29 -28 -115 -44 -137 -14
-20 -15 -20 -36 3 -24 25 -43 25 -48 -1 -4 -20 51 -47 79 -40 35 9 76 63 94
122 l17 58 50 -5 c45 -4 50 -3 46 14 -2 10 -12 20 -23 22 -51 7 -65 13 -65 28
0 12 10 14 47 12 38 -2 48 0 51 14 2 13 -7 18 -42 23 -43 7 -45 9 -40 34 10
41 42 111 51 111 5 0 16 -9 26 -20 18 -22 33 -25 41 -11 16 26 -38 65 -74 53z"/>
</g>
</svg>
